<svg width="16" height="12" viewBox="0 0 16 12" fill="none" xmlns="http://www.w3.org/2000/svg">
<path d="M13.961 0H1.3961C0.628247 0 0 0.675 0 1.5V10.5C0 11.325 0.628247 12 1.3961 12H13.961C14.7289 12 15.3571 11.325 15.3571 10.5V1.5C15.3571 0.675 14.7289 0 13.961 0ZM1.3961 0.75H13.961C14.0872 0.75 14.1213 0.877856 14.0353 0.970222L8.16722 7.27496C8.02761 7.42496 7.88799 7.5 7.67857 7.5C7.50406 7.5 7.32954 7.42496 7.18993 7.27496L1.32181 0.970222C1.23585 0.877855 1.26992 0.75 1.3961 0.75ZM0.698052 10.5V1.5C0.698052 1.4598 0.747321 1.44042 0.774711 1.46985L3.84056 4.76387C4.48888 5.46044 4.48888 6.53956 3.84056 7.23613L0.774711 10.5302C0.747321 10.5596 0.698052 10.5402 0.698052 10.5ZM13.961 11.25H1.3961C1.26992 11.25 1.23584 11.1221 1.32181 11.0298L4.32788 7.8C4.96906 7.11111 6.06014 7.11111 6.7013 7.80002C6.98052 8.10002 7.32955 8.21246 7.67857 8.21246C8.0276 8.21246 8.37662 8.06252 8.65584 7.80002C9.297 7.11111 10.3881 7.1111 11.0293 7.8L14.0353 11.0298C14.1213 11.1221 14.0872 11.25 13.961 11.25ZM14.6591 10.5C14.6591 10.5402 14.6098 10.5596 14.5824 10.5302L11.5166 7.23613C10.8683 6.53956 10.8683 5.46044 11.5166 4.76387L14.5824 1.46985C14.6098 1.44042 14.6591 1.4598 14.6591 1.5V10.5Z" fill="#0052CC"/>
</svg>
