<svg width="16" height="16" viewBox="0 0 16 16" fill="none" xmlns="http://www.w3.org/2000/svg">
<path fill-rule="evenodd" clip-rule="evenodd" d="M15.1349 7.2888L8.39928 0.301595C8.213 0.108481 7.96041 0 7.69703 0C7.43366 0 7.18107 0.108481 6.99479 0.301595L5.59646 1.7536L7.3704 3.5936C7.57956 3.52002 7.80443 3.50881 8.01944 3.56124C8.23444 3.61367 8.43094 3.72763 8.58659 3.89016C8.74224 4.05269 8.85079 4.25727 8.8999 4.48062C8.94901 4.70398 8.93669 4.93714 8.86436 5.1536L10.5743 6.9272C10.8298 6.8361 11.1077 6.83858 11.3617 6.93424C11.6156 7.0299 11.8303 7.21294 11.97 7.45287C12.1096 7.6928 12.1657 7.97512 12.129 8.25278C12.0923 8.53043 11.965 8.78665 11.7682 8.97872C11.5714 9.1708 11.3172 9.28713 11.0478 9.30833C10.7783 9.32953 10.5101 9.25432 10.2876 9.09522C10.0652 8.93613 9.90203 8.70277 9.82535 8.43404C9.74868 8.1653 9.76312 7.87743 9.86625 7.6184L8.27125 5.964V10.3168C8.5136 10.4412 8.70752 10.648 8.8207 10.9027C8.93387 11.1574 8.95946 11.4446 8.89319 11.7166C8.82693 11.9885 8.67281 12.2286 8.45654 12.3969C8.24026 12.5653 7.9749 12.6516 7.70468 12.6416C7.43446 12.6316 7.17571 12.5258 6.97156 12.3419C6.76742 12.158 6.63021 11.9071 6.58281 11.631C6.53542 11.3548 6.5807 11.0702 6.7111 10.8245C6.8415 10.5788 7.04916 10.3869 7.29944 10.2808V5.8888C7.15511 5.82746 7.02391 5.73708 6.91341 5.62289C6.80292 5.50869 6.71532 5.37293 6.65566 5.22344C6.59601 5.07395 6.56548 4.91369 6.56583 4.75191C6.56619 4.59012 6.59742 4.43 6.65774 4.2808L4.90925 2.4656L0.290833 7.2552C0.104606 7.44856 0 7.71069 0 7.984C0 8.25731 0.104606 8.51944 0.290833 8.7128L7.02641 15.6984C7.21269 15.8915 7.46528 16 7.72866 16C7.99203 16 8.24462 15.8915 8.43091 15.6984L15.1349 8.7448C15.2272 8.64911 15.3004 8.5355 15.3503 8.41045C15.4003 8.2854 15.426 8.15136 15.426 8.016C15.426 7.88064 15.4003 7.7466 15.3503 7.62155C15.3004 7.4965 15.2272 7.38289 15.1349 7.2872" fill="#0052CC"/>
</svg>
