<svg width="100" height="28" viewBox="0 0 100 28" fill="none" xmlns="http://www.w3.org/2000/svg">
<path fill-rule="evenodd" clip-rule="evenodd" d="M41.1778 23.0674H41.1333C41.1533 23.0674 41.1667 23.0899 41.1867 23.0922H41.2L41.1778 23.0697V23.0674ZM41.1867 23.0922C40.98 23.0944 40.46 23.2047 39.9111 23.2047C38.1778 23.2047 37.5778 22.3947 37.5778 21.3372V14.2924H41.1111C41.3111 14.2924 41.4667 14.1124 41.4667 13.8649V10.0399C41.4667 9.83741 41.2889 9.65741 41.1111 9.65741H37.5778V4.90991C37.5778 4.72991 37.4667 4.61741 37.2667 4.61741H32.4667C32.2667 4.61741 32.1556 4.72991 32.1556 4.90991V9.79241C32.1556 9.79241 29.7333 10.3999 29.5778 10.4224C29.4 10.4674 29.2889 10.6249 29.2889 10.8049V13.8649C29.2889 14.1124 29.4667 14.2924 29.6667 14.2924H32.1333V21.6724C32.1333 27.1624 35.9111 27.7249 38.4889 27.7249C39.6667 27.7249 41.0889 27.3424 41.3111 27.2299C41.4444 27.1849 41.5111 27.0274 41.5111 26.8699V23.4949C41.5142 23.3992 41.483 23.3056 41.4235 23.2312C41.3639 23.1568 41.2798 23.1066 41.1867 23.0899V23.0922ZM93.8444 18.1399C93.8444 14.0674 92.2222 13.5274 90.5111 13.7074C89.1778 13.7974 88.1111 14.4724 88.1111 14.4724V22.3924C88.1111 22.3924 89.2 23.1574 90.8222 23.2024C93.1111 23.2699 93.8444 22.4374 93.8444 18.1399ZM99.2444 17.7799C99.2444 25.4974 96.7778 27.7024 92.4667 27.7024C88.8222 27.7024 86.8667 25.8349 86.8667 25.8349C86.8667 25.8349 86.7778 26.8699 86.6667 27.0049C86.6 27.1399 86.4889 27.1849 86.3556 27.1849H83.0667C82.8444 27.1849 82.6444 27.0049 82.6444 26.8024L82.6889 1.80491C82.6889 1.60241 82.8667 1.42241 83.0667 1.42241H87.8C88 1.42241 88.1778 1.60241 88.1778 1.80491V10.2874C88.1778 10.2874 90 9.09491 92.6667 9.09491L92.6444 9.04991C95.3111 9.04991 99.2444 10.0624 99.2444 17.7799ZM79.8667 9.65741H75.2C74.9556 9.65741 74.8222 9.83741 74.8222 10.0849V22.3249C74.8222 22.3249 73.6 23.2024 71.9333 23.2024C70.2667 23.2024 69.7778 22.4374 69.7778 20.7499V10.0624C69.7778 9.85991 69.6 9.67991 69.4 9.67991H64.6444C64.4444 9.67991 64.2667 9.85991 64.2667 10.0624V21.5599C64.2667 26.5099 67 27.7474 70.7556 27.7474C73.8444 27.7474 76.3556 26.0149 76.3556 26.0149C76.3556 26.0149 76.4667 26.8924 76.5333 27.0274C76.5778 27.1399 76.7333 27.2299 76.8889 27.2299H79.8667C80.1111 27.2299 80.2444 27.0499 80.2444 26.8474L80.2889 10.0399C80.2889 9.83741 80.1111 9.65741 79.8667 9.65741ZM27.2 9.63491H22.4667C22.2667 9.63491 22.0889 9.83741 22.0889 10.0849V26.5999C22.0889 27.0499 22.3778 27.2074 22.7556 27.2074H27.0222C27.4667 27.2074 27.5778 27.0049 27.5778 26.5999V10.0174C27.5778 9.81491 27.4 9.63491 27.2 9.63491ZM24.8667 2.02991C23.1556 2.02991 21.8 3.40241 21.8 5.13491C21.8 6.86741 23.1556 8.23991 24.8667 8.23991C26.5333 8.23991 27.8889 6.86741 27.8889 5.13491C27.8889 3.40241 26.5333 2.02991 24.8667 2.02991ZM61.5111 1.46741H56.8222C56.6222 1.46741 56.4444 1.64741 56.4444 1.84991V11.0524H49.0889V1.84991C49.0889 1.64741 48.9111 1.46741 48.7111 1.46741H43.9778C43.7778 1.46741 43.6 1.64741 43.6 1.84991V26.8474C43.6 27.0499 43.8 27.2299 43.9778 27.2299H48.7111C48.9111 27.2299 49.0889 27.0499 49.0889 26.8474V16.1599H56.4444L56.4 26.8474C56.4 27.0499 56.5778 27.2299 56.7778 27.2299H61.5111C61.7111 27.2299 61.8889 27.0499 61.8889 26.8474V1.84991C61.8889 1.64741 61.7111 1.46741 61.5111 1.46741ZM19.5778 12.5374V25.4524C19.5778 25.5424 19.5556 25.6999 19.4444 25.7449C19.4444 25.7449 16.6667 27.7474 12.0889 27.7474C6.55556 27.7474 0 25.9924 0 14.4274C0 2.86241 5.73333 0.477413 11.3333 0.499913C16.1778 0.499913 18.1333 1.60241 18.4444 1.80491C18.5333 1.91741 18.5778 2.00741 18.5778 2.11991L17.6444 6.12491C17.6444 6.32741 17.4444 6.57491 17.2 6.50741C16.4 6.25991 15.2 5.76491 12.3778 5.76491C9.11111 5.76491 5.6 6.70991 5.6 14.1574C5.6 21.6049 8.93333 22.4824 11.3333 22.4824C13.3778 22.4824 14.1111 22.2349 14.1111 22.2349V17.0599H10.8444C10.6 17.0599 10.4222 16.8799 10.4222 16.6774V12.5374C10.4222 12.3349 10.6 12.1549 10.8444 12.1549H19.1556C19.4 12.1549 19.5778 12.3349 19.5778 12.5374Z" fill="#2F303A"/>
</svg>
