<svg width="17" height="21" viewBox="0 0 17 21" fill="none" xmlns="http://www.w3.org/2000/svg">
<path d="M8.16965 0C3.67634 0 0 3.41985 0 7.59966C0 13.7744 8.16965 20.8991 8.16965 20.8991C8.16965 20.8991 16.3393 13.7744 16.3393 7.59966C16.3393 3.41985 12.663 0 8.16965 0ZM8.16965 19.4741C8.16965 19.4741 1.02121 13.2994 1.02121 7.59966C1.02121 3.94232 4.238 0.949958 8.16965 0.949958C12.1013 0.949958 15.3181 3.94232 15.3181 7.59966C15.3181 13.2994 8.16965 19.4741 8.16965 19.4741ZM8.16965 3.79983C5.92299 3.79983 4.08482 5.50976 4.08482 7.59966C4.08482 9.68957 5.92299 11.3995 8.16965 11.3995C10.4163 11.3995 12.2545 9.68957 12.2545 7.59966C12.2545 5.50976 10.4163 3.79983 8.16965 3.79983ZM8.16965 10.4495C6.48466 10.4495 5.10603 9.16709 5.10603 7.59966C5.10603 6.03223 6.48466 4.74979 8.16965 4.74979C9.85464 4.74979 11.2333 6.03223 11.2333 7.59966C11.2333 9.16709 9.85464 10.4495 8.16965 10.4495Z" fill="#0052CC"/>
</svg>
