<svg width="15" height="12" viewBox="0 0 15 12" fill="none" xmlns="http://www.w3.org/2000/svg">
<path d="M8.16629 0.544218C11.549 0.544218 14.3166 2.7483 14.3166 5.44218C14.3166 5.60545 14.4533 5.71429 14.6583 5.71429C14.8633 5.71429 15 5.60545 15 5.44218C15 2.44898 11.9248 0 8.16629 0C7.96127 0 7.8246 0.108844 7.8246 0.272109C7.8246 0.435374 7.96127 0.544218 8.16629 0.544218ZM8.16629 3.26531C9.6697 3.26531 10.8998 4.2449 10.8998 5.44218C10.8998 5.60545 11.0364 5.71429 11.2415 5.71429C11.4465 5.71429 11.5831 5.60545 11.5831 5.44218C11.5831 3.94558 10.0456 2.72109 8.16629 2.72109C7.96127 2.72109 7.8246 2.82993 7.8246 2.9932C7.8246 3.15646 7.96127 3.26531 8.16629 3.26531ZM8.16629 5.9864C8.54214 5.9864 8.84966 5.7415 8.84966 5.44218C8.84966 5.14286 8.54214 4.89796 8.16629 4.89796C7.79043 4.89796 7.48291 5.14286 7.48291 5.44218C7.48291 5.7415 7.79043 5.9864 8.16629 5.9864ZM15 9.52382C15 9.30613 14.8975 9.08845 14.6925 8.95239C14.5866 8.86803 14.4637 8.80773 14.3485 8.7365L11.6173 7.04763C11.4465 6.91158 11.1731 6.80272 10.8998 6.80272C10.6606 6.80272 10.4556 6.85714 10.2847 6.96598L9.46469 7.61905C9.32801 7.7279 9.15717 7.80953 8.95216 7.80953C8.7205 7.80953 8.52091 7.73295 8.41545 7.57979C8.41247 7.57547 8.40547 7.56746 8.40547 7.57271C8.40547 7.57673 8.4011 7.58931 8.39761 7.58729C7.27456 6.93597 6.2874 6.17649 5.50377 5.28192C5.5021 5.28001 5.49866 5.27892 5.5012 5.27892C5.50999 5.27892 5.51738 5.26727 5.51012 5.26231C5.35122 5.1538 5.22779 4.99735 5.22779 4.81633C5.22779 4.65307 5.3303 4.4898 5.46697 4.40817L6.28701 3.78232C6.42369 3.64627 6.49203 3.48299 6.49203 3.29251C6.49203 3.2446 6.48706 3.19668 6.47713 3.14964C6.40402 2.80337 6.05993 2.59332 5.81287 2.33992L4.0646 0.546849C3.97471 0.454652 3.89344 0.352326 3.79271 0.272109C3.62187 0.136055 3.34852 0.0272043 3.07517 0.0272043C1.70843 0.0272043 0 1.30612 0 2.88435C0 3.31972 0.136674 3.72789 0.341686 4.10884C2.3918 7.37415 5.80866 10.0952 9.90889 11.7279C10.3872 11.8912 10.8998 12 11.4465 12C13.3941 11.9728 15 10.6123 15 9.52382ZM11.4123 11.4286C10.9865 11.4286 10.592 11.3536 10.229 11.2275C10.1979 11.2167 10.1674 11.1955 10.1354 11.188C10.0975 11.1791 10.0611 11.1761 10.0251 11.1614C6.17157 9.58846 2.99162 7.05562 1.01712 3.98651C0.999923 3.95977 0.988415 3.92823 0.971598 3.90125C0.957366 3.87841 0.950121 3.85152 0.937944 3.82753C0.778392 3.51314 0.683371 3.19874 0.683371 2.88435C0.683371 1.57823 2.11845 0.571422 3.07517 0.571422C3.21117 0.571422 3.2795 0.625319 3.31383 0.652662C3.31418 0.65294 3.3145 0.653193 3.31485 0.653477C3.31906 0.656964 3.34852 0.682215 3.34852 0.707477C3.34852 0.750443 3.39947 0.77912 3.42947 0.809883L5.63781 3.07483C5.67198 3.10204 5.67198 3.10204 5.70614 3.12925C5.74031 3.15646 5.80866 3.21089 5.80866 3.31973C5.80866 3.41439 5.73666 3.48591 5.66262 3.54487L5.02277 4.05443C4.74942 4.27212 4.57859 4.54422 4.57859 4.84354C4.57859 5.11565 4.71526 5.38775 4.95444 5.60544C4.97719 5.62356 4.99848 5.64339 5.01829 5.66469C5.86293 6.5728 6.87308 7.37516 8.04872 8.04584C8.05857 8.05146 8.06252 8.05321 8.07361 8.05563C8.09309 8.05989 8.10696 8.08897 8.1229 8.10094C8.36059 8.27945 8.6917 8.38095 9.05467 8.38095C9.39636 8.38095 9.77221 8.27211 10.0114 8.05442L10.0456 8.02722L10.6632 7.513C10.752 7.43904 10.8525 7.37415 10.9681 7.37415C11.1048 7.37415 11.1731 7.42858 11.2073 7.45579C11.2415 7.483 11.2415 7.48299 11.2756 7.5102L14.1512 9.28836C14.17 9.29998 14.1936 9.3038 14.2111 9.31733C14.2122 9.31819 14.2133 9.31906 14.2144 9.31993C14.2333 9.335 14.2719 9.35094 14.2953 9.35715C14.3187 9.36336 14.3274 9.36818 14.3451 9.38466C14.3792 9.41642 14.4191 9.46781 14.4191 9.55102C14.4191 9.58718 14.4154 9.62304 14.4048 9.65762C14.1884 10.3664 12.9793 11.4286 11.4123 11.4286Z" fill="#0052CC"/>
</svg>
