<svg width="100" height="37" viewBox="0 0 100 37" fill="none" xmlns="http://www.w3.org/2000/svg">
<g clip-path="url(#clip0_138_39)">
<path d="M51.6281 12.2552L56.3857 11.9488C56.4942 12.7238 56.6932 13.3005 57.0188 13.715C57.5434 14.3638 58.267 14.6882 59.2258 14.6882C59.9313 14.6882 60.492 14.526 60.8719 14.1836C61.2337 13.9133 61.4508 13.4807 61.4508 13.0302C61.4508 12.5976 61.2518 12.1831 60.9081 11.9128C60.5463 11.5884 59.6961 11.264 58.3575 10.9756C56.1686 10.489 54.5948 9.84021 53.6722 9.01118C52.7496 8.23621 52.225 7.1008 52.2612 5.8933C52.2612 5.06427 52.5145 4.23524 52.9848 3.55039C53.5275 2.77542 54.2692 2.16266 55.1556 1.82024C56.1143 1.40572 57.453 1.18945 59.1353 1.18945C61.1975 1.18945 62.7714 1.56792 63.8567 2.34289C64.9421 3.09983 65.5934 4.32535 65.7923 6.00144L61.089 6.27177C60.9624 5.55088 60.7091 5.02823 60.2931 4.6858C59.877 4.34337 59.3343 4.18117 58.6288 4.18117C58.0499 4.18117 57.6158 4.30733 57.3263 4.54162C57.055 4.75789 56.8741 5.08229 56.8922 5.44274C56.8922 5.71308 57.0369 5.96539 57.254 6.12759C57.4892 6.34386 58.0499 6.54211 58.9363 6.72233C61.1252 7.19091 62.6809 7.6595 63.6397 8.1461C64.5984 8.63271 65.2858 9.22745 65.7019 9.93032C66.136 10.6512 66.3531 11.4802 66.335 12.3273C66.335 13.3366 66.0456 14.3458 65.4667 15.1929C64.8698 16.076 64.0376 16.7608 63.0608 17.1753C62.0297 17.6259 60.7272 17.8602 59.1715 17.8602C56.4219 17.8602 54.5224 17.3375 53.4551 16.2742C52.3878 15.2109 51.7547 13.8772 51.6281 12.2552ZM1.13965 17.5898V1.47781H9.47902C11.0166 1.47781 12.2106 1.60397 13.0246 1.8743C13.8206 2.12662 14.5261 2.64927 14.9964 3.35214C15.521 4.12711 15.7742 5.02823 15.7562 5.96539C15.8104 7.55136 14.9964 9.06525 13.6035 9.85823C13.0608 10.1646 12.4638 10.3809 11.8488 10.489C12.301 10.6152 12.7533 10.8314 13.1512 11.0838C13.4588 11.3361 13.712 11.6244 13.9472 11.9308C14.2185 12.2372 14.4537 12.5796 14.6527 12.9401L17.0767 17.6079H11.3965L8.71925 12.6517C8.37554 12.0209 8.08611 11.6064 7.81476 11.4082C7.45297 11.1558 7.01881 11.0297 6.58466 11.0297H6.15051V17.5718H1.13965V17.5898ZM6.15051 8.00192H8.267C8.71925 7.96588 9.1534 7.89379 9.58755 7.78565C9.91317 7.73159 10.2026 7.55136 10.4016 7.28103C10.89 6.63222 10.8177 5.71308 10.2207 5.15438C9.89508 4.88405 9.26194 4.73987 8.35745 4.73987H6.15051V8.00192ZM0 31.395L4.7576 31.0886C4.86614 31.8636 5.06512 32.4403 5.39074 32.8548C5.89725 33.5036 6.63893 33.8461 7.59769 33.8461C8.30318 33.8461 8.86397 33.6838 9.24385 33.3414C9.60564 33.0531 9.82272 32.6386 9.82272 32.188C9.82272 31.7555 9.62373 31.3409 9.28003 31.0706C8.91823 30.7462 8.06802 30.4218 6.71129 30.1334C4.52243 29.6468 2.94863 28.998 2.02605 28.169C1.10347 27.394 0.578871 26.2586 0.615051 25.0511C0.615051 24.2221 0.868307 23.3931 1.33864 22.7082C1.88133 21.9332 2.62301 21.3205 3.50941 20.9781C4.46816 20.5635 5.8068 20.3473 7.48915 20.3473C9.55138 20.3473 11.1252 20.7257 12.2106 21.5007C13.2959 22.2757 13.9291 23.4832 14.1281 25.1593L9.42475 25.4296C9.29812 24.7087 9.04486 24.186 8.6288 23.8436C8.23083 23.5012 7.67004 23.339 6.96454 23.357C6.38567 23.357 5.95152 23.4832 5.66208 23.7355C5.37265 23.9518 5.20984 24.2762 5.22793 24.6366C5.22793 24.9069 5.37265 25.1593 5.58973 25.3215C5.82489 25.5377 6.38567 25.736 7.27207 25.9162C9.46093 26.3848 11.0166 26.8534 11.9754 27.34C12.9342 27.8266 13.6216 28.4213 14.0376 29.1242C14.4718 29.8451 14.6889 30.6741 14.6889 31.5031C14.6889 32.5124 14.3813 33.5036 13.8206 34.3507C13.2236 35.2338 12.3915 35.9186 11.4146 36.3331C10.3835 36.7837 9.08104 37.018 7.52533 37.018C4.77569 37.018 2.87627 36.4953 1.80897 35.432C0.741679 34.3507 0.144718 33.017 0 31.395H0Z" fill="#2F303A"/>
<path d="M24.0593 30.1336L28.437 31.4492C28.2019 32.5486 27.7134 33.5939 27.0441 34.513C26.4291 35.324 25.615 35.9548 24.6925 36.3693C23.7518 36.7838 22.5579 37.0001 21.1107 37.0001C19.356 37.0001 17.9088 36.7478 16.8053 36.2432C15.6838 35.7385 14.725 34.8374 13.911 33.5578C13.0969 32.2782 12.699 30.6382 12.699 28.6377C12.699 25.9704 13.4045 23.9158 14.8336 22.4921C16.2627 21.0683 18.2706 20.3474 20.8755 20.3474C22.9197 20.3474 24.5116 20.7619 25.6874 21.5729C26.8451 22.402 27.7134 23.6635 28.2923 25.3576L23.8784 26.3309C23.7699 25.9524 23.6071 25.5739 23.39 25.2495C23.1187 24.871 22.775 24.5827 22.3589 24.3664C21.9428 24.1501 21.4725 24.06 21.0022 24.06C19.8625 24.06 18.9942 24.5106 18.3972 25.4297C17.945 26.0966 17.7098 27.1599 17.7098 28.6017C17.7098 30.3859 17.9812 31.6114 18.5239 32.2782C19.0666 32.9451 19.8263 33.2695 20.8213 33.2695C21.78 33.2695 22.5036 32.9991 22.992 32.4765C23.4805 31.9178 23.8422 31.1428 24.0593 30.1336ZM34.28 20.6177H39.2728V26.2588H44.7359V20.6177H49.7648V36.7298H44.7359V30.2057H39.2728V36.7298H34.28V20.6177Z" fill="#2F303A"/>
<path d="M49.0774 28.6737C49.0774 26.0424 49.8191 23.9879 51.2843 22.5281C52.7496 21.0683 54.8118 20.3293 57.4348 20.3293C60.1302 20.3293 62.1924 21.0502 63.6577 22.492C65.123 23.9338 65.8466 25.9523 65.8466 28.5476C65.8466 30.4399 65.521 31.9718 64.8878 33.1793C64.2728 34.3688 63.314 35.342 62.1382 35.9908C60.9262 36.6576 59.4247 37.0001 57.6338 37.0001C55.8068 37.0001 54.3053 36.7117 53.1114 36.135C51.8813 35.5222 50.8683 34.567 50.199 33.3956C49.4573 32.134 49.0774 30.5661 49.0774 28.6737ZM54.0702 28.6917C54.0702 30.3138 54.3777 31.4852 54.9746 32.2061C55.5716 32.909 56.4037 33.2694 57.4529 33.2694C58.5202 33.2694 59.3524 32.927 59.9493 32.2241C60.5463 31.5213 60.8357 30.2777 60.8357 28.4755C60.8357 26.9616 60.5282 25.8442 59.9131 25.1594C59.2981 24.4565 58.466 24.1141 57.4168 24.1141C56.4942 24.078 55.6078 24.4745 54.9927 25.1774C54.3777 25.8802 54.0702 27.0517 54.0702 28.6917ZM70.966 28.6737C70.966 26.0424 71.7076 23.9879 73.1729 22.5281C74.6382 21.0683 76.7004 20.3293 79.3234 20.3293C82.0188 20.3293 84.0991 21.0502 85.5463 22.492C86.9935 23.9338 87.7351 25.9523 87.7351 28.5476C87.7351 30.4399 87.4095 31.9718 86.7764 33.1793C86.1613 34.3688 85.2026 35.342 84.0268 35.9908C82.8147 36.6576 81.3133 37.0001 79.5224 37.0001C77.6953 37.0001 76.1939 36.7117 75 36.135C73.7699 35.5222 72.7569 34.567 72.0875 33.3956C71.3459 32.134 70.966 30.5661 70.966 28.6737ZM75.9587 28.6917C75.9587 30.3138 76.2663 31.4852 76.8632 32.2061C77.4602 32.909 78.2923 33.2694 79.3415 33.2694C80.4088 33.2694 81.2409 32.927 81.8379 32.2241C82.4349 31.5213 82.7243 30.2777 82.7243 28.4755C82.7243 26.9616 82.4168 25.8442 81.8017 25.1594C81.1867 24.4565 80.3545 24.1141 79.3053 24.1141C78.3828 24.078 77.4783 24.4745 76.8813 25.1774C76.2663 25.8802 75.9587 27.0517 75.9587 28.6917Z" fill="#2F303A"/>
<path d="M87.2105 20.6177H92.2032V32.7648H99.9999V36.7297H87.1924V20.6177H87.2105Z" fill="#2F303A"/>
<path d="M81.7075 19.6877C86.7342 15.9138 88.2842 9.51644 85.1697 5.3988C82.0551 1.28116 75.4553 1.00249 70.4287 4.77638C65.4021 8.55028 63.852 14.9476 66.9666 19.0653C70.0811 23.1829 76.6809 23.4616 81.7075 19.6877Z" fill="white"/>
<path d="M54.147 10.1902L80.1225 -9.31166L98.0968 14.4514L72.1213 33.9533L54.147 10.1902Z" fill="white"/>
<path d="M81.7073 19.6879C86.7339 15.914 88.284 9.51668 85.1694 5.39904C82.0549 1.2814 75.4551 1.00274 70.4285 4.77663C65.4018 8.55052 63.8518 14.9479 66.9663 19.0655C70.0809 23.1832 76.6807 23.4618 81.7073 19.6879Z" fill="white"/>
<path d="M61.3804 11.7769L79.5693 -1.87846L90.8588 13.0474L72.6698 26.7027L61.3804 11.7769Z" fill="white"/>
<path d="M81.7073 19.6879C86.734 15.914 88.284 9.51668 85.1694 5.39904C82.0549 1.2814 75.4551 1.00274 70.4285 4.77663C65.4018 8.55052 63.8518 14.9479 66.9663 19.0655C70.0809 23.1832 76.6807 23.4618 81.7073 19.6879Z" fill="white" stroke="#2F303A" stroke-width="4" stroke-miterlimit="10"/>
<path d="M61.3804 11.7769L79.5693 -1.87846L90.8587 13.0474L72.6698 26.7027L61.3804 11.7769Z" stroke="#2F303A" stroke-width="4" stroke-miterlimit="10"/>
<path d="M81.7073 19.6879C86.7339 15.914 88.284 9.51668 85.1694 5.39904C82.0549 1.2814 75.4551 1.00274 70.4285 4.77663C65.4018 8.55052 63.8518 14.9479 66.9663 19.0655C70.0809 23.1832 76.6807 23.4618 81.7073 19.6879Z" stroke="#2F303A" stroke-width="4" stroke-miterlimit="10"/>
<path d="M61.3804 11.7769L79.5693 -1.87846L90.8588 13.0474L72.6698 26.7027L61.3804 11.7769Z" fill="white"/>
<path d="M81.7073 19.6879C86.734 15.914 88.284 9.51668 85.1694 5.39904C82.0549 1.2814 75.4551 1.00274 70.4285 4.77663C65.4018 8.55052 63.8518 14.9479 66.9663 19.0655C70.0809 23.1832 76.6807 23.4618 81.7073 19.6879Z" fill="white" stroke="#2F303A" stroke-width="4" stroke-miterlimit="10"/>
<path d="M61.3804 11.7769L79.5693 -1.87846L90.8587 13.0474L72.6698 26.7027L61.3804 11.7769Z" stroke="#2F303A" stroke-width="4" stroke-miterlimit="10"/>
<path d="M54.147 10.1902L80.1225 -9.31165L98.0968 14.4514L72.1213 33.9533L54.147 10.1902Z" stroke="#2F303A" stroke-width="4" stroke-miterlimit="10"/>
<path d="M81.7073 19.6879C86.7339 15.914 88.284 9.51668 85.1694 5.39904C82.0549 1.2814 75.4551 1.00274 70.4285 4.77663C65.4018 8.55052 63.8518 14.9479 66.9663 19.0655C70.0809 23.1832 76.6807 23.4618 81.7073 19.6879Z" stroke="#2F303A" stroke-width="4" stroke-miterlimit="10"/>
<path d="M70.9841 11.0477L72.7931 9.78616L75.0181 12.9401C75.398 13.4447 75.6875 13.9854 75.9045 14.5801C76.0312 15.0307 75.995 15.5173 75.8141 15.9498C75.5789 16.4905 75.199 16.9411 74.6925 17.2655C74.0956 17.68 73.589 17.9143 73.1549 17.9864C72.7388 18.0584 72.3047 17.9864 71.9067 17.8061C71.4725 17.5899 71.0927 17.2835 70.8032 16.887L72.3589 15.4452C72.4856 15.6434 72.6484 15.8237 72.8293 15.9678C72.9559 16.058 73.1006 16.112 73.2634 16.112C73.3901 16.112 73.5167 16.058 73.6071 15.9859C73.788 15.8777 73.9147 15.6615 73.8966 15.4452C73.8423 15.1388 73.7157 14.8324 73.5167 14.5981L70.9841 11.0477ZM76.411 13.0482L78.0572 11.7506C78.2381 11.9669 78.4733 12.1291 78.7265 12.2192C79.0883 12.3273 79.4682 12.2552 79.7757 12.0209C79.9928 11.8768 80.1737 11.6785 80.2461 11.4262C80.3546 11.1018 80.1737 10.7413 79.8481 10.6332C79.7938 10.6152 79.7395 10.5972 79.6853 10.5972C79.4682 10.5791 79.0883 10.6693 78.5275 10.9036C77.605 11.282 76.8814 11.4262 76.3387 11.3721C75.8141 11.3181 75.3257 11.0477 75.0362 10.5972C74.8191 10.2908 74.7106 9.93034 74.6925 9.56989C74.6925 9.15538 74.8011 8.74086 75.0362 8.39844C75.3799 7.91183 75.796 7.49732 76.3025 7.17291C77.0623 6.65026 77.7316 6.39795 78.3105 6.39795C78.8893 6.39795 79.432 6.66829 79.9385 7.22698L78.3105 8.50657C77.9848 8.09206 77.3698 8.00194 76.9537 8.32635L76.8995 8.38041C76.7186 8.48855 76.5919 8.65075 76.5196 8.849C76.4653 8.99318 76.5015 9.15538 76.5919 9.28153C76.6643 9.37165 76.7728 9.44374 76.8995 9.44374C77.0442 9.46176 77.2974 9.38967 77.6592 9.22747C78.5637 8.849 79.2511 8.63273 79.7215 8.56064C80.1194 8.48855 80.5355 8.52459 80.9154 8.68679C81.2591 8.83097 81.5485 9.08329 81.7475 9.38967C82.0008 9.75012 82.1455 10.1827 82.1636 10.6332C82.1817 11.1018 82.055 11.5524 81.8018 11.9489C81.4762 12.4355 81.0601 12.85 80.5717 13.1744C79.5767 13.8592 78.7627 14.1476 78.1115 14.0394C77.406 13.9313 76.8271 13.5709 76.411 13.0482Z" fill="#2F303A"/>
</g>
<defs>
<clipPath id="clip0_138_39">
<rect width="100" height="37" fill="white"/>
</clipPath>
</defs>
</svg>
